<mxfile host="app.diagrams.net" agent="Mozilla/5.0 (Windows NT 10.0; Win64; x64) AppleWebKit/537.36 (KHTML, like Gecko) Chrome/135.0.0.0 Safari/537.36" version="26.1.3">
  <diagram name="Página-1" id="AUZy9N6doEFzxFLyX9WA">
    <mxGraphModel dx="1799" dy="936" grid="1" gridSize="10" guides="1" tooltips="1" connect="1" arrows="1" fold="1" page="1" pageScale="1" pageWidth="1169" pageHeight="827" math="0" shadow="0">
      <root>
        <mxCell id="0" />
        <mxCell id="1" parent="0" />
        <mxCell id="dUcWwCWo96VUqdSj0CyP-47" style="edgeStyle=orthogonalEdgeStyle;rounded=0;orthogonalLoop=1;jettySize=auto;html=1;entryX=0;entryY=0.5;entryDx=0;entryDy=0;" edge="1" parent="1" source="BD7i1XrLmSHp17CCOzVs-1" target="BD7i1XrLmSHp17CCOzVs-3">
          <mxGeometry relative="1" as="geometry">
            <Array as="points">
              <mxPoint x="503" y="400" />
              <mxPoint x="503" y="364" />
            </Array>
          </mxGeometry>
        </mxCell>
        <mxCell id="dUcWwCWo96VUqdSj0CyP-62" style="edgeStyle=orthogonalEdgeStyle;rounded=0;orthogonalLoop=1;jettySize=auto;html=1;entryX=0.5;entryY=0;entryDx=0;entryDy=0;" edge="1" parent="1" source="BD7i1XrLmSHp17CCOzVs-1" target="BD7i1XrLmSHp17CCOzVs-6">
          <mxGeometry relative="1" as="geometry">
            <Array as="points">
              <mxPoint x="505" y="430" />
            </Array>
          </mxGeometry>
        </mxCell>
        <mxCell id="BD7i1XrLmSHp17CCOzVs-1" value="Usuarios" style="rounded=0;whiteSpace=wrap;html=1;fillColor=#d5e8d4;strokeColor=#82b366;" parent="1" vertex="1">
          <mxGeometry x="325" y="394" width="120" height="40" as="geometry" />
        </mxCell>
        <mxCell id="dUcWwCWo96VUqdSj0CyP-43" style="edgeStyle=orthogonalEdgeStyle;rounded=0;orthogonalLoop=1;jettySize=auto;html=1;entryX=1;entryY=0.5;entryDx=0;entryDy=0;" edge="1" parent="1" source="BD7i1XrLmSHp17CCOzVs-2" target="dUcWwCWo96VUqdSj0CyP-42">
          <mxGeometry relative="1" as="geometry">
            <Array as="points">
              <mxPoint x="720" y="310" />
              <mxPoint x="720" y="210" />
            </Array>
          </mxGeometry>
        </mxCell>
        <mxCell id="BD7i1XrLmSHp17CCOzVs-2" value="Productos" style="rounded=0;whiteSpace=wrap;html=1;fillColor=#d5e8d4;strokeColor=#82b366;" parent="1" vertex="1">
          <mxGeometry x="790" y="300" width="120" height="40" as="geometry" />
        </mxCell>
        <mxCell id="dUcWwCWo96VUqdSj0CyP-48" style="edgeStyle=orthogonalEdgeStyle;rounded=0;orthogonalLoop=1;jettySize=auto;html=1;" edge="1" parent="1" source="BD7i1XrLmSHp17CCOzVs-3">
          <mxGeometry relative="1" as="geometry">
            <mxPoint x="790" y="320" as="targetPoint" />
            <Array as="points">
              <mxPoint x="720" y="350" />
              <mxPoint x="720" y="320" />
              <mxPoint x="790" y="320" />
            </Array>
          </mxGeometry>
        </mxCell>
        <mxCell id="BD7i1XrLmSHp17CCOzVs-3" value="Suben" style="rhombus;whiteSpace=wrap;html=1;fillColor=#f8cecc;strokeColor=#b85450;" parent="1" vertex="1">
          <mxGeometry x="560" y="320" width="80" height="60" as="geometry" />
        </mxCell>
        <mxCell id="dUcWwCWo96VUqdSj0CyP-63" style="edgeStyle=orthogonalEdgeStyle;rounded=0;orthogonalLoop=1;jettySize=auto;html=1;entryX=0;entryY=0.75;entryDx=0;entryDy=0;" edge="1" parent="1" source="BD7i1XrLmSHp17CCOzVs-6" target="dUcWwCWo96VUqdSj0CyP-20">
          <mxGeometry relative="1" as="geometry" />
        </mxCell>
        <mxCell id="BD7i1XrLmSHp17CCOzVs-6" value="Compran" style="rhombus;whiteSpace=wrap;html=1;fillColor=#f8cecc;strokeColor=#b85450;" parent="1" vertex="1">
          <mxGeometry x="465" y="530" width="80" height="60" as="geometry" />
        </mxCell>
        <mxCell id="BD7i1XrLmSHp17CCOzVs-11" value="" style="edgeStyle=orthogonalEdgeStyle;rounded=0;orthogonalLoop=1;jettySize=auto;html=1;entryX=0.75;entryY=0;entryDx=0;entryDy=0;" parent="1" source="BD7i1XrLmSHp17CCOzVs-10" target="BD7i1XrLmSHp17CCOzVs-1" edge="1">
          <mxGeometry relative="1" as="geometry">
            <Array as="points">
              <mxPoint x="415" y="334" />
            </Array>
          </mxGeometry>
        </mxCell>
        <mxCell id="BD7i1XrLmSHp17CCOzVs-10" value="&lt;u&gt;ID&lt;/u&gt;" style="ellipse;whiteSpace=wrap;html=1;fillColor=#dae8fc;strokeColor=#6c8ebf;" parent="1" vertex="1">
          <mxGeometry x="235" y="324" width="90" height="20" as="geometry" />
        </mxCell>
        <mxCell id="BD7i1XrLmSHp17CCOzVs-13" style="edgeStyle=orthogonalEdgeStyle;rounded=0;orthogonalLoop=1;jettySize=auto;html=1;entryX=0.5;entryY=0;entryDx=0;entryDy=0;" parent="1" source="BD7i1XrLmSHp17CCOzVs-12" target="BD7i1XrLmSHp17CCOzVs-1" edge="1">
          <mxGeometry relative="1" as="geometry" />
        </mxCell>
        <mxCell id="BD7i1XrLmSHp17CCOzVs-12" value="&lt;u&gt;Nombre&lt;/u&gt;" style="ellipse;whiteSpace=wrap;html=1;fillColor=#dae8fc;strokeColor=#6c8ebf;" parent="1" vertex="1">
          <mxGeometry x="215" y="344" width="90" height="20" as="geometry" />
        </mxCell>
        <mxCell id="BD7i1XrLmSHp17CCOzVs-24" style="edgeStyle=orthogonalEdgeStyle;rounded=0;orthogonalLoop=1;jettySize=auto;html=1;entryX=0.25;entryY=0;entryDx=0;entryDy=0;" parent="1" source="BD7i1XrLmSHp17CCOzVs-14" edge="1">
          <mxGeometry relative="1" as="geometry">
            <mxPoint x="344.99999999999994" y="394" as="targetPoint" />
          </mxGeometry>
        </mxCell>
        <mxCell id="BD7i1XrLmSHp17CCOzVs-14" value="Apellidos" style="ellipse;whiteSpace=wrap;html=1;fillColor=#dae8fc;strokeColor=#6c8ebf;" parent="1" vertex="1">
          <mxGeometry x="195" y="364" width="90" height="20" as="geometry" />
        </mxCell>
        <mxCell id="BD7i1XrLmSHp17CCOzVs-17" value="" style="edgeStyle=orthogonalEdgeStyle;rounded=0;orthogonalLoop=1;jettySize=auto;html=1;entryX=0.25;entryY=1;entryDx=0;entryDy=0;" parent="1" source="BD7i1XrLmSHp17CCOzVs-16" edge="1">
          <mxGeometry relative="1" as="geometry">
            <mxPoint x="344.99999999999994" y="434" as="targetPoint" />
          </mxGeometry>
        </mxCell>
        <mxCell id="BD7i1XrLmSHp17CCOzVs-16" value="&lt;u&gt;Contraseña&lt;/u&gt;" style="ellipse;whiteSpace=wrap;html=1;fillColor=#dae8fc;strokeColor=#6c8ebf;" parent="1" vertex="1">
          <mxGeometry x="195" y="444" width="90" height="20" as="geometry" />
        </mxCell>
        <mxCell id="BD7i1XrLmSHp17CCOzVs-23" style="edgeStyle=orthogonalEdgeStyle;rounded=0;orthogonalLoop=1;jettySize=auto;html=1;entryX=0.5;entryY=1;entryDx=0;entryDy=0;" parent="1" source="BD7i1XrLmSHp17CCOzVs-18" target="BD7i1XrLmSHp17CCOzVs-1" edge="1">
          <mxGeometry relative="1" as="geometry" />
        </mxCell>
        <mxCell id="BD7i1XrLmSHp17CCOzVs-18" value="Correo" style="ellipse;whiteSpace=wrap;html=1;fillColor=#dae8fc;strokeColor=#6c8ebf;" parent="1" vertex="1">
          <mxGeometry x="215" y="464" width="90" height="20" as="geometry" />
        </mxCell>
        <mxCell id="BD7i1XrLmSHp17CCOzVs-22" style="edgeStyle=orthogonalEdgeStyle;rounded=0;orthogonalLoop=1;jettySize=auto;html=1;entryX=0.75;entryY=1;entryDx=0;entryDy=0;" parent="1" source="BD7i1XrLmSHp17CCOzVs-21" target="BD7i1XrLmSHp17CCOzVs-1" edge="1">
          <mxGeometry relative="1" as="geometry">
            <Array as="points">
              <mxPoint x="415" y="494" />
            </Array>
          </mxGeometry>
        </mxCell>
        <mxCell id="BD7i1XrLmSHp17CCOzVs-21" value="Dirección" style="ellipse;whiteSpace=wrap;html=1;fillColor=#dae8fc;strokeColor=#6c8ebf;" parent="1" vertex="1">
          <mxGeometry x="235" y="484" width="90" height="20" as="geometry" />
        </mxCell>
        <mxCell id="BD7i1XrLmSHp17CCOzVs-27" value="" style="edgeStyle=orthogonalEdgeStyle;rounded=0;orthogonalLoop=1;jettySize=auto;html=1;entryX=0;entryY=0.25;entryDx=0;entryDy=0;" parent="1" source="BD7i1XrLmSHp17CCOzVs-25" target="BD7i1XrLmSHp17CCOzVs-1" edge="1">
          <mxGeometry relative="1" as="geometry">
            <mxPoint x="314.99999999999994" y="404" as="targetPoint" />
            <Array as="points" />
          </mxGeometry>
        </mxCell>
        <mxCell id="BD7i1XrLmSHp17CCOzVs-25" value="Username" style="ellipse;whiteSpace=wrap;html=1;fillColor=#dae8fc;strokeColor=#6c8ebf;" parent="1" vertex="1">
          <mxGeometry x="195" y="394" width="90" height="20" as="geometry" />
        </mxCell>
        <mxCell id="BD7i1XrLmSHp17CCOzVs-28" value="" style="edgeStyle=orthogonalEdgeStyle;rounded=0;orthogonalLoop=1;jettySize=auto;html=1;entryX=0;entryY=0.75;entryDx=0;entryDy=0;" parent="1" source="BD7i1XrLmSHp17CCOzVs-26" target="BD7i1XrLmSHp17CCOzVs-1" edge="1">
          <mxGeometry relative="1" as="geometry">
            <mxPoint x="314.99999999999994" y="424" as="targetPoint" />
            <Array as="points" />
          </mxGeometry>
        </mxCell>
        <mxCell id="BD7i1XrLmSHp17CCOzVs-26" value="Imagen" style="ellipse;whiteSpace=wrap;html=1;fillColor=#dae8fc;strokeColor=#6c8ebf;" parent="1" vertex="1">
          <mxGeometry x="195" y="414" width="90" height="20" as="geometry" />
        </mxCell>
        <mxCell id="BD7i1XrLmSHp17CCOzVs-39" style="edgeStyle=orthogonalEdgeStyle;rounded=0;orthogonalLoop=1;jettySize=auto;html=1;entryX=0.25;entryY=0;entryDx=0;entryDy=0;" parent="1" source="BD7i1XrLmSHp17CCOzVs-29" target="BD7i1XrLmSHp17CCOzVs-2" edge="1">
          <mxGeometry relative="1" as="geometry">
            <Array as="points">
              <mxPoint x="820" y="240" />
            </Array>
          </mxGeometry>
        </mxCell>
        <mxCell id="BD7i1XrLmSHp17CCOzVs-29" value="&lt;u&gt;ID&lt;/u&gt;" style="ellipse;whiteSpace=wrap;html=1;fillColor=#dae8fc;strokeColor=#6c8ebf;flipH=0;flipV=0;" parent="1" vertex="1">
          <mxGeometry x="910" y="230" width="90" height="20" as="geometry" />
        </mxCell>
        <mxCell id="BD7i1XrLmSHp17CCOzVs-40" style="edgeStyle=orthogonalEdgeStyle;rounded=0;orthogonalLoop=1;jettySize=auto;html=1;entryX=0.5;entryY=0;entryDx=0;entryDy=0;" parent="1" source="BD7i1XrLmSHp17CCOzVs-30" target="BD7i1XrLmSHp17CCOzVs-2" edge="1">
          <mxGeometry relative="1" as="geometry" />
        </mxCell>
        <mxCell id="BD7i1XrLmSHp17CCOzVs-30" value="Nombre" style="ellipse;whiteSpace=wrap;html=1;fillColor=#dae8fc;strokeColor=#6c8ebf;flipH=0;flipV=0;" parent="1" vertex="1">
          <mxGeometry x="930" y="250" width="90" height="20" as="geometry" />
        </mxCell>
        <mxCell id="BD7i1XrLmSHp17CCOzVs-41" style="edgeStyle=orthogonalEdgeStyle;rounded=0;orthogonalLoop=1;jettySize=auto;html=1;entryX=0.75;entryY=0;entryDx=0;entryDy=0;" parent="1" source="BD7i1XrLmSHp17CCOzVs-31" target="BD7i1XrLmSHp17CCOzVs-2" edge="1">
          <mxGeometry relative="1" as="geometry" />
        </mxCell>
        <mxCell id="BD7i1XrLmSHp17CCOzVs-31" value="IdUser (FK)" style="ellipse;whiteSpace=wrap;html=1;fillColor=#dae8fc;strokeColor=#6c8ebf;flipH=0;flipV=0;" parent="1" vertex="1">
          <mxGeometry x="950" y="270" width="90" height="20" as="geometry" />
        </mxCell>
        <mxCell id="BD7i1XrLmSHp17CCOzVs-42" style="edgeStyle=orthogonalEdgeStyle;rounded=0;orthogonalLoop=1;jettySize=auto;html=1;" parent="1" source="BD7i1XrLmSHp17CCOzVs-32" edge="1">
          <mxGeometry relative="1" as="geometry">
            <mxPoint x="850" y="340" as="targetPoint" />
            <Array as="points">
              <mxPoint x="850" y="380" />
              <mxPoint x="850" y="340" />
            </Array>
          </mxGeometry>
        </mxCell>
        <mxCell id="BD7i1XrLmSHp17CCOzVs-32" value="Disponible" style="ellipse;whiteSpace=wrap;html=1;fillColor=#dae8fc;strokeColor=#6c8ebf;flipH=0;flipV=0;" parent="1" vertex="1">
          <mxGeometry x="930" y="370" width="90" height="20" as="geometry" />
        </mxCell>
        <mxCell id="BD7i1XrLmSHp17CCOzVs-43" style="edgeStyle=orthogonalEdgeStyle;rounded=0;orthogonalLoop=1;jettySize=auto;html=1;entryX=0.25;entryY=1;entryDx=0;entryDy=0;" parent="1" source="BD7i1XrLmSHp17CCOzVs-33" target="BD7i1XrLmSHp17CCOzVs-2" edge="1">
          <mxGeometry relative="1" as="geometry">
            <Array as="points">
              <mxPoint x="820" y="400" />
            </Array>
          </mxGeometry>
        </mxCell>
        <mxCell id="BD7i1XrLmSHp17CCOzVs-33" value="Imagen" style="ellipse;whiteSpace=wrap;html=1;fillColor=#dae8fc;strokeColor=#6c8ebf;flipH=0;flipV=0;" parent="1" vertex="1">
          <mxGeometry x="910" y="390" width="90" height="20" as="geometry" />
        </mxCell>
        <mxCell id="BD7i1XrLmSHp17CCOzVs-37" style="edgeStyle=orthogonalEdgeStyle;rounded=0;orthogonalLoop=1;jettySize=auto;html=1;entryX=1;entryY=0.25;entryDx=0;entryDy=0;" parent="1" source="BD7i1XrLmSHp17CCOzVs-35" edge="1">
          <mxGeometry relative="1" as="geometry">
            <mxPoint x="910.0000000000001" y="320" as="targetPoint" />
          </mxGeometry>
        </mxCell>
        <mxCell id="BD7i1XrLmSHp17CCOzVs-35" value="Categoria" style="ellipse;whiteSpace=wrap;html=1;fillColor=#dae8fc;strokeColor=#6c8ebf;flipH=0;flipV=0;" parent="1" vertex="1">
          <mxGeometry x="950" y="310" width="90" height="20" as="geometry" />
        </mxCell>
        <mxCell id="BD7i1XrLmSHp17CCOzVs-38" style="edgeStyle=orthogonalEdgeStyle;rounded=0;orthogonalLoop=1;jettySize=auto;html=1;entryX=0.75;entryY=1;entryDx=0;entryDy=0;" parent="1" source="BD7i1XrLmSHp17CCOzVs-36" target="BD7i1XrLmSHp17CCOzVs-2" edge="1">
          <mxGeometry relative="1" as="geometry" />
        </mxCell>
        <mxCell id="BD7i1XrLmSHp17CCOzVs-36" value="Precio" style="ellipse;whiteSpace=wrap;html=1;fillColor=#dae8fc;strokeColor=#6c8ebf;flipH=0;flipV=0;" parent="1" vertex="1">
          <mxGeometry x="950" y="350" width="90" height="20" as="geometry" />
        </mxCell>
        <mxCell id="dUcWwCWo96VUqdSj0CyP-1" value="Categoría" style="rounded=0;whiteSpace=wrap;html=1;fillColor=#d5e8d4;strokeColor=#82b366;" vertex="1" parent="1">
          <mxGeometry x="320" y="190" width="120" height="40" as="geometry" />
        </mxCell>
        <mxCell id="dUcWwCWo96VUqdSj0CyP-2" value="" style="edgeStyle=orthogonalEdgeStyle;rounded=0;orthogonalLoop=1;jettySize=auto;html=1;entryX=0.75;entryY=0;entryDx=0;entryDy=0;exitX=1;exitY=0.5;exitDx=0;exitDy=0;" edge="1" parent="1" source="dUcWwCWo96VUqdSj0CyP-3" target="dUcWwCWo96VUqdSj0CyP-1">
          <mxGeometry relative="1" as="geometry">
            <Array as="points">
              <mxPoint x="410" y="150" />
            </Array>
          </mxGeometry>
        </mxCell>
        <mxCell id="dUcWwCWo96VUqdSj0CyP-3" value="&lt;u&gt;ID&lt;/u&gt;" style="ellipse;whiteSpace=wrap;html=1;fillColor=#dae8fc;strokeColor=#6c8ebf;" vertex="1" parent="1">
          <mxGeometry x="230" y="140" width="90" height="20" as="geometry" />
        </mxCell>
        <mxCell id="dUcWwCWo96VUqdSj0CyP-4" style="edgeStyle=orthogonalEdgeStyle;rounded=0;orthogonalLoop=1;jettySize=auto;html=1;entryX=0.5;entryY=0;entryDx=0;entryDy=0;" edge="1" parent="1" source="dUcWwCWo96VUqdSj0CyP-5" target="dUcWwCWo96VUqdSj0CyP-1">
          <mxGeometry relative="1" as="geometry" />
        </mxCell>
        <mxCell id="dUcWwCWo96VUqdSj0CyP-5" value="Nombre" style="ellipse;whiteSpace=wrap;html=1;fillColor=#dae8fc;strokeColor=#6c8ebf;" vertex="1" parent="1">
          <mxGeometry x="210" y="160" width="90" height="20" as="geometry" />
        </mxCell>
        <mxCell id="dUcWwCWo96VUqdSj0CyP-8" value="" style="edgeStyle=orthogonalEdgeStyle;rounded=0;orthogonalLoop=1;jettySize=auto;html=1;entryX=0.75;entryY=1;entryDx=0;entryDy=0;" edge="1" parent="1" source="dUcWwCWo96VUqdSj0CyP-9" target="dUcWwCWo96VUqdSj0CyP-1">
          <mxGeometry relative="1" as="geometry">
            <mxPoint x="339.99999999999994" y="230" as="targetPoint" />
            <Array as="points">
              <mxPoint x="410" y="270" />
            </Array>
          </mxGeometry>
        </mxCell>
        <mxCell id="dUcWwCWo96VUqdSj0CyP-9" value="IsActive" style="ellipse;whiteSpace=wrap;html=1;fillColor=#dae8fc;strokeColor=#6c8ebf;" vertex="1" parent="1">
          <mxGeometry x="230" y="260" width="90" height="20" as="geometry" />
        </mxCell>
        <mxCell id="dUcWwCWo96VUqdSj0CyP-14" value="" style="edgeStyle=orthogonalEdgeStyle;rounded=0;orthogonalLoop=1;jettySize=auto;html=1;entryX=0.5;entryY=1;entryDx=0;entryDy=0;" edge="1" parent="1" source="dUcWwCWo96VUqdSj0CyP-15" target="dUcWwCWo96VUqdSj0CyP-1">
          <mxGeometry relative="1" as="geometry">
            <mxPoint x="309.99999999999994" y="200" as="targetPoint" />
            <Array as="points" />
          </mxGeometry>
        </mxCell>
        <mxCell id="dUcWwCWo96VUqdSj0CyP-15" value="Imagen" style="ellipse;whiteSpace=wrap;html=1;fillColor=#dae8fc;strokeColor=#6c8ebf;" vertex="1" parent="1">
          <mxGeometry x="210" y="240" width="90" height="20" as="geometry" />
        </mxCell>
        <mxCell id="dUcWwCWo96VUqdSj0CyP-20" value="Compras" style="rounded=0;whiteSpace=wrap;html=1;fillColor=#d5e8d4;strokeColor=#82b366;" vertex="1" parent="1">
          <mxGeometry x="780" y="530" width="120" height="40" as="geometry" />
        </mxCell>
        <mxCell id="dUcWwCWo96VUqdSj0CyP-21" style="edgeStyle=orthogonalEdgeStyle;rounded=0;orthogonalLoop=1;jettySize=auto;html=1;entryX=0.25;entryY=0;entryDx=0;entryDy=0;" edge="1" parent="1" source="dUcWwCWo96VUqdSj0CyP-22" target="dUcWwCWo96VUqdSj0CyP-20">
          <mxGeometry relative="1" as="geometry">
            <Array as="points">
              <mxPoint x="810" y="470" />
            </Array>
          </mxGeometry>
        </mxCell>
        <mxCell id="dUcWwCWo96VUqdSj0CyP-22" value="&lt;u&gt;ID&lt;/u&gt;" style="ellipse;whiteSpace=wrap;html=1;fillColor=#dae8fc;strokeColor=#6c8ebf;flipH=0;flipV=0;" vertex="1" parent="1">
          <mxGeometry x="900" y="460" width="90" height="20" as="geometry" />
        </mxCell>
        <mxCell id="dUcWwCWo96VUqdSj0CyP-23" style="edgeStyle=orthogonalEdgeStyle;rounded=0;orthogonalLoop=1;jettySize=auto;html=1;entryX=0.5;entryY=0;entryDx=0;entryDy=0;" edge="1" parent="1" source="dUcWwCWo96VUqdSj0CyP-24" target="dUcWwCWo96VUqdSj0CyP-20">
          <mxGeometry relative="1" as="geometry" />
        </mxCell>
        <mxCell id="dUcWwCWo96VUqdSj0CyP-24" value="FechaCompra" style="ellipse;whiteSpace=wrap;html=1;fillColor=#dae8fc;strokeColor=#6c8ebf;flipH=0;flipV=0;" vertex="1" parent="1">
          <mxGeometry x="920" y="480" width="90" height="20" as="geometry" />
        </mxCell>
        <mxCell id="dUcWwCWo96VUqdSj0CyP-25" style="edgeStyle=orthogonalEdgeStyle;rounded=0;orthogonalLoop=1;jettySize=auto;html=1;entryX=0.75;entryY=0;entryDx=0;entryDy=0;" edge="1" parent="1" source="dUcWwCWo96VUqdSj0CyP-26" target="dUcWwCWo96VUqdSj0CyP-20">
          <mxGeometry relative="1" as="geometry" />
        </mxCell>
        <mxCell id="dUcWwCWo96VUqdSj0CyP-26" value="IdUser (FK)" style="ellipse;whiteSpace=wrap;html=1;fillColor=#dae8fc;strokeColor=#6c8ebf;flipH=0;flipV=0;" vertex="1" parent="1">
          <mxGeometry x="940" y="500" width="90" height="20" as="geometry" />
        </mxCell>
        <mxCell id="dUcWwCWo96VUqdSj0CyP-36" value="" style="edgeStyle=orthogonalEdgeStyle;rounded=0;orthogonalLoop=1;jettySize=auto;html=1;" edge="1" parent="1" source="dUcWwCWo96VUqdSj0CyP-35" target="dUcWwCWo96VUqdSj0CyP-20">
          <mxGeometry relative="1" as="geometry" />
        </mxCell>
        <mxCell id="dUcWwCWo96VUqdSj0CyP-35" value="IdProducto (FK)" style="ellipse;whiteSpace=wrap;html=1;fillColor=#dae8fc;strokeColor=#6c8ebf;flipH=0;flipV=0;" vertex="1" parent="1">
          <mxGeometry x="940" y="540" width="90" height="20" as="geometry" />
        </mxCell>
        <mxCell id="dUcWwCWo96VUqdSj0CyP-40" style="edgeStyle=orthogonalEdgeStyle;rounded=0;orthogonalLoop=1;jettySize=auto;html=1;entryX=0.5;entryY=1;entryDx=0;entryDy=0;" edge="1" parent="1" source="dUcWwCWo96VUqdSj0CyP-37" target="dUcWwCWo96VUqdSj0CyP-20">
          <mxGeometry relative="1" as="geometry" />
        </mxCell>
        <mxCell id="dUcWwCWo96VUqdSj0CyP-37" value="Pagado" style="ellipse;whiteSpace=wrap;html=1;fillColor=#dae8fc;strokeColor=#6c8ebf;flipH=0;flipV=0;" vertex="1" parent="1">
          <mxGeometry x="920" y="580" width="90" height="20" as="geometry" />
        </mxCell>
        <mxCell id="dUcWwCWo96VUqdSj0CyP-39" style="edgeStyle=orthogonalEdgeStyle;rounded=0;orthogonalLoop=1;jettySize=auto;html=1;entryX=0.25;entryY=1;entryDx=0;entryDy=0;" edge="1" parent="1" source="dUcWwCWo96VUqdSj0CyP-38" target="dUcWwCWo96VUqdSj0CyP-20">
          <mxGeometry relative="1" as="geometry" />
        </mxCell>
        <mxCell id="dUcWwCWo96VUqdSj0CyP-38" value="InCarrito" style="ellipse;whiteSpace=wrap;html=1;fillColor=#dae8fc;strokeColor=#6c8ebf;flipH=0;flipV=0;" vertex="1" parent="1">
          <mxGeometry x="940" y="600" width="90" height="20" as="geometry" />
        </mxCell>
        <mxCell id="dUcWwCWo96VUqdSj0CyP-44" style="edgeStyle=orthogonalEdgeStyle;rounded=0;orthogonalLoop=1;jettySize=auto;html=1;entryX=1;entryY=0.5;entryDx=0;entryDy=0;" edge="1" parent="1" source="dUcWwCWo96VUqdSj0CyP-42" target="dUcWwCWo96VUqdSj0CyP-1">
          <mxGeometry relative="1" as="geometry" />
        </mxCell>
        <mxCell id="dUcWwCWo96VUqdSj0CyP-42" value="Pertenecen" style="rhombus;whiteSpace=wrap;html=1;fillColor=#f8cecc;strokeColor=#b85450;" vertex="1" parent="1">
          <mxGeometry x="570" y="180" width="80" height="60" as="geometry" />
        </mxCell>
        <mxCell id="dUcWwCWo96VUqdSj0CyP-45" value="N" style="text;html=1;align=center;verticalAlign=middle;resizable=0;points=[];autosize=1;strokeColor=none;fillColor=none;" vertex="1" parent="1">
          <mxGeometry x="760" y="280" width="30" height="30" as="geometry" />
        </mxCell>
        <mxCell id="dUcWwCWo96VUqdSj0CyP-46" value="1" style="text;html=1;align=center;verticalAlign=middle;resizable=0;points=[];autosize=1;strokeColor=none;fillColor=none;" vertex="1" parent="1">
          <mxGeometry x="440" y="180" width="30" height="30" as="geometry" />
        </mxCell>
        <mxCell id="dUcWwCWo96VUqdSj0CyP-50" value="N" style="text;html=1;align=center;verticalAlign=middle;resizable=0;points=[];autosize=1;strokeColor=none;fillColor=none;" vertex="1" parent="1">
          <mxGeometry x="660" y="320" width="30" height="30" as="geometry" />
        </mxCell>
        <mxCell id="dUcWwCWo96VUqdSj0CyP-51" value="1" style="text;html=1;align=center;verticalAlign=middle;resizable=0;points=[];autosize=1;strokeColor=none;fillColor=none;" vertex="1" parent="1">
          <mxGeometry x="720" y="330" width="30" height="30" as="geometry" />
        </mxCell>
        <mxCell id="dUcWwCWo96VUqdSj0CyP-52" value="1" style="text;html=1;align=center;verticalAlign=middle;resizable=0;points=[];autosize=1;strokeColor=none;fillColor=none;" vertex="1" parent="1">
          <mxGeometry x="450" y="370" width="30" height="30" as="geometry" />
        </mxCell>
        <mxCell id="dUcWwCWo96VUqdSj0CyP-55" value="1" style="text;html=1;align=center;verticalAlign=middle;resizable=0;points=[];autosize=1;strokeColor=none;fillColor=none;" vertex="1" parent="1">
          <mxGeometry x="510" y="380" width="30" height="30" as="geometry" />
        </mxCell>
        <mxCell id="dUcWwCWo96VUqdSj0CyP-64" value="1" style="text;html=1;align=center;verticalAlign=middle;resizable=0;points=[];autosize=1;strokeColor=none;fillColor=none;" vertex="1" parent="1">
          <mxGeometry x="460" y="404" width="30" height="30" as="geometry" />
        </mxCell>
        <mxCell id="dUcWwCWo96VUqdSj0CyP-65" value="N" style="text;html=1;align=center;verticalAlign=middle;resizable=0;points=[];autosize=1;strokeColor=none;fillColor=none;" vertex="1" parent="1">
          <mxGeometry x="740" y="530" width="30" height="30" as="geometry" />
        </mxCell>
        <mxCell id="dUcWwCWo96VUqdSj0CyP-66" value="1" style="text;html=1;align=center;verticalAlign=middle;resizable=0;points=[];autosize=1;strokeColor=none;fillColor=none;" vertex="1" parent="1">
          <mxGeometry x="740" y="570" width="30" height="30" as="geometry" />
        </mxCell>
        <mxCell id="dUcWwCWo96VUqdSj0CyP-67" value="1" style="text;html=1;align=center;verticalAlign=middle;resizable=0;points=[];autosize=1;strokeColor=none;fillColor=none;" vertex="1" parent="1">
          <mxGeometry x="460" y="439" width="30" height="30" as="geometry" />
        </mxCell>
        <mxCell id="dUcWwCWo96VUqdSj0CyP-68" value="(1:N)" style="text;html=1;align=center;verticalAlign=middle;resizable=0;points=[];autosize=1;strokeColor=#6c8ebf;fillColor=#dae8fc;" vertex="1" parent="1">
          <mxGeometry x="520" y="510" width="50" height="30" as="geometry" />
        </mxCell>
        <mxCell id="dUcWwCWo96VUqdSj0CyP-69" value="(1:N)" style="text;html=1;align=center;verticalAlign=middle;resizable=0;points=[];autosize=1;strokeColor=#6c8ebf;fillColor=#dae8fc;" vertex="1" parent="1">
          <mxGeometry x="575" y="280" width="50" height="30" as="geometry" />
        </mxCell>
        <mxCell id="dUcWwCWo96VUqdSj0CyP-70" value="(1:N)" style="text;html=1;align=center;verticalAlign=middle;resizable=0;points=[];autosize=1;strokeColor=#6c8ebf;fillColor=#dae8fc;" vertex="1" parent="1">
          <mxGeometry x="585" y="140" width="50" height="30" as="geometry" />
        </mxCell>
      </root>
    </mxGraphModel>
  </diagram>
</mxfile>
